<svg width="113" height="29" viewBox="0 0 113 29" fill="none" xmlns="http://www.w3.org/2000/svg">
<g filter="url(#filter0_d_1_2)">
<path d="M12.1261 0.219999C13.1461 0.219999 13.7461 0.589999 13.9261 1.33C13.9261 1.63 13.6361 1.95 13.0561 2.29L12.0661 2.02H11.9461C10.8261 2.02 9.54609 3.61 8.10609 6.79C7.90609 7.57 7.80609 8.32 7.80609 9.04V10.27H7.92609C10.3661 9.69 11.9261 9.4 12.6061 9.4C13.4861 9.56 13.9261 9.91 13.9261 10.45C13.7461 11.01 13.4561 11.29 13.0561 11.29L12.5161 11.2C10.4761 11.38 8.97609 11.69 8.01609 12.13V12.34L8.37609 17.2C8.37609 19.5 7.91609 20.65 6.99609 20.65C6.67609 20.65 6.38609 20.4 6.12609 19.9C6.44609 19.08 6.60609 18.05 6.60609 16.81C6.60609 15.55 6.48609 14.12 6.24609 12.52L4.80609 12.7C3.50609 12.58 2.85609 12.17 2.85609 11.47C3.05609 10.91 3.37609 10.63 3.81609 10.63L4.56609 10.84H5.10609L6.06609 10.72V9.04C6.06609 5.94 7.43609 3.22 10.1761 0.879999C10.7961 0.439999 11.4461 0.219999 12.1261 0.219999ZM18.5829 8.23C19.3829 8.25 20.7329 9.65 22.6329 12.43L22.6929 12.94C22.6929 13.5 21.3229 13.93 18.5829 14.23L18.4929 14.32V14.44C18.9129 16.24 19.3529 17.14 19.8129 17.14H20.1729C20.8129 17.14 21.7829 16.45 23.0829 15.07H23.2629C23.6629 15.07 23.9729 15.36 24.1929 15.94C24.1929 16.42 23.3529 17.25 21.6729 18.43C21.2329 18.69 20.7029 18.88 20.0829 19C18.4629 19 17.3329 17.48 16.6929 14.44C15.7729 14.3 15.3129 13.92 15.3129 13.3C15.3129 12.86 15.6529 12.57 16.3329 12.43V12.55L16.6329 12.43V11.68C16.6329 9.38 17.2829 8.23 18.5829 8.23ZM18.7629 10.39H18.4929L18.3729 11.5V12.43H18.4929C19.6129 12.39 20.1729 12.27 20.1729 12.07C19.6529 11.29 19.1829 10.73 18.7629 10.39ZM27.6558 2.47C28.2158 2.67 28.4958 2.98 28.4958 3.4L28.7958 14.83V18.52C28.7958 19.2 28.5058 19.54 27.9258 19.54H27.5358C27.1758 19.3 26.9958 19.02 26.9958 18.7V15.22L26.7258 3.34C26.7258 2.84 27.0358 2.55 27.6558 2.47ZM31.9155 3.37C32.6755 3.53 33.0555 3.87 33.0555 4.39C32.8555 4.95 32.5355 5.23 32.0955 5.23C31.3555 5.09 30.9855 4.72 30.9855 4.12C31.1855 3.62 31.4955 3.37 31.9155 3.37ZM33.0555 7.57C33.3755 7.57 33.6455 7.86 33.8655 8.44L33.5955 10.57V11.98C33.5955 13.62 33.8755 15.77 34.4355 18.43C34.2355 18.81 33.8955 19 33.4155 19C32.5955 19 32.0555 16.6 31.7955 11.8V10.75C31.7955 8.63 32.2155 7.57 33.0555 7.57ZM40.6294 10.33H40.6894C41.0894 10.33 41.3394 10.65 41.4394 11.29C40.9394 13.31 40.6894 14.87 40.6894 15.97C41.2094 16.85 41.9594 17.29 42.9394 17.29C43.1994 17.53 43.3294 17.78 43.3294 18.04V18.4C43.1494 18.78 42.7494 18.97 42.1294 18.97C41.5694 18.93 41.0294 18.7 40.5094 18.28H40.2394C40.0194 20.42 39.7294 21.49 39.3694 21.49H38.8294C38.3894 21.25 38.1694 20.97 38.1694 20.65L38.7394 16.15V16.03C37.3594 13.49 36.6694 11.91 36.6694 11.29C36.6694 10.81 37.0094 10.56 37.6894 10.54C38.1694 10.54 38.6094 11.31 39.0094 12.85L39.1294 12.97H39.3094C39.5094 11.21 39.9494 10.33 40.6294 10.33ZM65.9709 1.24H66.2709C66.8309 1.24 67.1509 1.57 67.2309 2.23C67.2309 2.81 66.4409 3.1 64.8609 3.1C62.3209 4.06 60.6109 5.46 59.7309 7.3L59.5209 8.17V8.35C59.5209 9.23 60.1109 9.67 61.2909 9.67L64.5909 9.49C66.8109 9.49 68.3109 10.57 69.0909 12.73L69.2709 13.78C69.2709 15.86 67.5909 17.76 64.2309 19.48C63.2309 19.76 62.3509 19.95 61.5909 20.05C59.5509 20.05 58.1109 18.9 57.2709 16.6C57.0309 15.82 56.9109 15.03 56.9109 14.23C56.9109 13.99 57.1009 13.74 57.4809 13.48H57.8409C58.4609 13.48 58.7709 14.27 58.7709 15.85C59.2909 17.41 60.1109 18.19 61.2309 18.19H62.0409C63.6609 18.19 65.2609 17.25 66.8409 15.37C67.2609 14.77 67.4709 14.12 67.4709 13.42C67.4709 12.44 66.7009 11.75 65.1609 11.35H65.0409L61.1109 11.44C58.9309 11.18 57.8409 10.28 57.8409 8.74L57.7209 8.35C57.7209 6.29 59.2609 4.29 62.3409 2.35C63.6809 1.61 64.8909 1.24 65.9709 1.24ZM75.9333 7.69C77.4133 7.69 78.5333 8.79 79.2933 10.99L79.4133 11.62C79.4133 13.76 78.4133 15.95 76.4133 18.19C75.6133 18.93 74.8033 19.3 73.9833 19.3C72.7833 19.3 71.9333 18.61 71.4333 17.23C71.2533 16.59 71.1633 16.03 71.1633 15.55V15.19C71.1633 12.03 72.3133 9.63 74.6133 7.99C75.0133 7.79 75.4533 7.69 75.9333 7.69ZM72.9333 15.49C72.9333 16.85 73.2833 17.53 73.9833 17.53C75.4433 17.53 76.6533 15.66 77.6133 11.92V11.35C77.2733 10.11 76.6433 9.49 75.7233 9.49C75.3633 9.49 75.1833 9.74 75.1833 10.24C75.1833 10.58 74.7833 10.85 73.9833 11.05C73.2833 12.23 72.9333 13.71 72.9333 15.49ZM89.8327 9.58C91.2127 10.5 91.9027 11.92 91.9027 13.84C91.9027 16.44 91.0327 18.21 89.2927 19.15L88.1527 19.33C87.4727 19.33 86.7527 19 85.9927 18.34H85.7827C85.1627 19.14 84.5827 19.54 84.0427 19.54C82.6227 19.54 81.8027 18.2 81.5827 15.52V13.9C81.7227 11.36 82.2527 10.09 83.1727 10.09C83.6727 10.09 83.9627 10.4 84.0427 11.02C83.5827 11.82 83.3527 12.94 83.3527 14.38V14.95C83.4327 16.75 83.6227 17.65 83.9227 17.65C84.2227 17.65 84.5327 17.13 84.8527 16.09L84.7927 14.02C84.7927 12.64 85.1227 11.95 85.7827 11.95C86.5427 11.95 86.9227 12.7 86.9227 14.2H87.0427L86.7427 16.09C87.0827 17.09 87.5527 17.59 88.1527 17.59H88.3327C89.2127 17.59 89.7827 16.65 90.0427 14.77V13.09C90.0427 12.45 89.6627 11.66 88.9027 10.72L88.7827 10.45C88.7827 10.03 89.1327 9.74 89.8327 9.58ZM99.5644 7.42C100.444 7.42 100.884 7.77 100.884 8.47L100.614 9.04L100.434 14.53C100.434 17.01 100.934 18.55 101.934 19.15L101.994 19.6C101.934 20.18 101.664 20.47 101.184 20.47H101.004C99.5044 19.45 98.7544 17.89 98.7544 15.79H98.5444C97.7444 18.03 96.7744 19.15 95.6344 19.15C94.5744 18.85 94.0444 18.06 94.0444 16.78C94.0444 13.96 95.1744 11.15 97.4344 8.35C98.1944 7.73 98.9044 7.42 99.5644 7.42ZM95.9344 15.58L95.8144 16.42V16.99H96.1144C97.6144 13.25 98.3644 10.97 98.3644 10.15H98.2444C97.0844 11.45 96.3144 13.26 95.9344 15.58ZM104.574 2.44C105.134 2.44 105.414 3.12 105.414 4.48L105.774 9.64H105.894L107.394 9.07C109.074 9.07 110.094 10.79 110.454 14.23C110.594 15.21 110.664 16.65 110.664 18.55V20.98C110.664 21.74 110.384 22.12 109.824 22.12H109.704C109.164 22.04 108.894 21.75 108.894 21.25V18.43C108.894 13.91 108.454 11.41 107.574 10.93H107.394C106.794 10.93 106.354 11.85 106.074 13.69V15.37C106.074 18.37 105.824 19.87 105.324 19.87L104.754 19.93C104.194 19.93 103.914 19.1 103.914 17.44C103.974 15.68 104.094 14.24 104.274 13.12L103.644 3.25C103.644 2.73 103.954 2.46 104.574 2.44Z" fill="#EFEBEB"/>
</g>
<defs>
<filter id="filter0_d_1_2" x="0.856094" y="0.220001" width="111.808" height="27.9" filterUnits="userSpaceOnUse" color-interpolation-filters="sRGB">
<feFlood flood-opacity="0" result="BackgroundImageFix"/>
<feColorMatrix in="SourceAlpha" type="matrix" values="0 0 0 0 0 0 0 0 0 0 0 0 0 0 0 0 0 0 127 0" result="hardAlpha"/>
<feOffset dy="4"/>
<feGaussianBlur stdDeviation="1"/>
<feComposite in2="hardAlpha" operator="out"/>
<feColorMatrix type="matrix" values="0 0 0 0 0 0 0 0 0 0 0 0 0 0 0 0 0 0 0.25 0"/>
<feBlend mode="normal" in2="BackgroundImageFix" result="effect1_dropShadow_1_2"/>
<feBlend mode="normal" in="SourceGraphic" in2="effect1_dropShadow_1_2" result="shape"/>
</filter>
</defs>
</svg>
