<svg width="540" height="77" viewBox="0 0 540 77" fill="none" xmlns="http://www.w3.org/2000/svg">
<mask id="path-1-outside-1_3078_91626" maskUnits="userSpaceOnUse" x="-0.216797" y="0.640137" width="540" height="76" fill="black">
<rect fill="white" x="-0.216797" y="0.640137" width="540" height="76"/>
<path d="M38.6112 1.64014C45.4512 1.64014 51.5712 2.50414 56.9712 4.23214C62.4432 5.88814 67.2672 8.40814 71.4432 11.7921L61.2912 27.9921C57.9072 25.6161 54.3432 23.7081 50.5992 22.2681C46.9272 20.8281 42.9312 20.1081 38.6112 20.1081C36.7392 20.1081 35.2272 20.2521 34.0752 20.5401C32.9952 20.8281 32.2032 21.2241 31.6992 21.7281C31.2672 22.2321 31.0512 22.8081 31.0512 23.4561C31.0512 24.3201 31.6992 24.9681 32.9952 25.4001C34.3632 25.8321 36.0552 26.3001 38.0712 26.8041L47.8992 29.0721C55.1712 30.7281 60.6432 33.1761 64.3152 36.4161C68.0592 39.6561 69.9312 44.1561 69.9312 49.9161C69.9312 55.6761 68.5272 60.4281 65.7192 64.1721C62.9112 67.8441 59.0952 70.5801 54.2712 72.3801C49.5192 74.1801 44.1192 75.0801 38.0712 75.0801C33.5352 75.0801 28.9992 74.6841 24.4632 73.8921C19.9272 73.0281 15.7152 71.8041 11.8272 70.2201C7.9392 68.5641 4.5912 66.5841 1.7832 64.2801L11.7192 47.7561C13.8072 49.4121 16.3272 50.9241 19.2792 52.2921C22.2312 53.5881 25.2912 54.6321 28.4592 55.4241C31.6272 56.2161 34.5792 56.6121 37.3152 56.6121C39.0432 56.6121 40.4112 56.4681 41.4192 56.1801C42.4272 55.8921 43.1112 55.5321 43.4712 55.1001C43.9032 54.5961 44.1192 54.0201 44.1192 53.3721C44.1192 52.3641 43.6872 51.6081 42.8232 51.1041C42.0312 50.6001 40.5552 50.0961 38.3952 49.5921L27.5952 47.2161C23.7792 46.3521 20.1432 45.2001 16.6872 43.7601C13.2312 42.3201 10.4232 40.2321 8.2632 37.4961C6.1032 34.6881 5.0232 30.9081 5.0232 26.1561C5.0232 21.2601 6.3192 16.9761 8.9112 13.3041C11.5752 9.63214 15.3912 6.78813 20.3592 4.77213C25.3992 2.68414 31.4832 1.64014 38.6112 1.64014Z"/>
<path d="M77.4305 74.0001V2.72014H136.614V21.1881H102.594V30.0441H130.026V47.1081H102.594V55.5321H137.91V74.0001H77.4305Z"/>
<path d="M183.7 2.72014C192.988 2.72014 200.116 4.80814 205.084 8.98413C210.052 13.0881 212.536 18.5601 212.536 25.4001C212.536 33.2481 210.088 39.1521 205.192 43.1121C200.368 47.0721 193.312 49.0521 184.024 49.0521L181.54 50.3481H169.66V74.0001H145.036V2.72014H183.7ZM179.38 33.8241C182.044 33.8241 184.024 33.3561 185.32 32.4201C186.688 31.4121 187.372 29.6841 187.372 27.2361C187.372 24.8601 186.688 23.1681 185.32 22.1601C184.024 21.1521 182.044 20.6481 179.38 20.6481H169.66V33.8241H179.38ZM194.284 39.1161L216.532 74.0001H189.208L172.576 42.7881L194.284 39.1161Z"/>
<path d="M293.004 2.72014L268.92 74.0001H239.004L214.92 2.72014H241.164L250.992 41.7081L254.448 55.6401L257.688 41.9241L267.732 2.72014H293.004Z"/>
<path d="M322.708 2.72014V74.0001H297.544V2.72014H322.708Z"/>
<path d="M400.469 52.1841C399.173 57.7281 396.941 62.1921 393.773 65.5761C390.677 68.9601 386.897 71.4081 382.433 72.9201C377.969 74.3601 373.001 75.0801 367.529 75.0801C360.041 75.0801 353.561 73.6401 348.089 70.7601C342.689 67.8801 338.513 63.7041 335.561 58.2321C332.681 52.7601 331.241 46.1361 331.241 38.3601C331.241 30.5841 332.681 23.9601 335.561 18.4881C338.513 13.0161 342.689 8.84014 348.089 5.96013C353.561 3.08014 360.041 1.64014 367.529 1.64014C372.785 1.64014 377.681 2.39614 382.217 3.90813C386.753 5.34814 390.569 7.65214 393.665 10.8201C396.833 13.9881 398.921 18.1281 399.929 23.2401L378.329 31.6641C377.753 26.9841 376.565 23.9601 374.765 22.5921C373.037 21.2241 370.841 20.5401 368.177 20.5401C365.729 20.5401 363.641 21.1881 361.913 22.4841C360.257 23.7081 358.997 25.6521 358.133 28.3161C357.341 30.9081 356.945 34.2561 356.945 38.3601C356.945 42.3921 357.305 45.7401 358.025 48.4041C358.817 51.0681 360.077 53.0481 361.805 54.3441C363.533 55.5681 365.837 56.1801 368.717 56.1801C371.309 56.1801 373.433 55.4241 375.089 53.9121C376.745 52.3281 377.789 49.8441 378.221 46.4601L400.469 52.1841Z"/>
<path d="M406.598 74.0001V2.72014H465.782V21.1881H431.762V30.0441H459.194V47.1081H431.762V55.5321H467.078V74.0001H406.598Z"/>
<path d="M505.416 1.64014C512.256 1.64014 518.376 2.50414 523.776 4.23214C529.248 5.88814 534.072 8.40814 538.248 11.7921L528.096 27.9921C524.712 25.6161 521.148 23.7081 517.404 22.2681C513.732 20.8281 509.736 20.1081 505.416 20.1081C503.544 20.1081 502.032 20.2521 500.88 20.5401C499.8 20.8281 499.008 21.2241 498.504 21.7281C498.072 22.2321 497.856 22.8081 497.856 23.4561C497.856 24.3201 498.504 24.9681 499.8 25.4001C501.168 25.8321 502.86 26.3001 504.876 26.8041L514.704 29.0721C521.976 30.7281 527.448 33.1761 531.12 36.4161C534.864 39.6561 536.736 44.1561 536.736 49.9161C536.736 55.6761 535.332 60.4281 532.524 64.1721C529.716 67.8441 525.9 70.5801 521.076 72.3801C516.324 74.1801 510.924 75.0801 504.876 75.0801C500.34 75.0801 495.804 74.6841 491.268 73.8921C486.732 73.0281 482.52 71.8041 478.632 70.2201C474.744 68.5641 471.396 66.5841 468.588 64.2801L478.524 47.7561C480.612 49.4121 483.132 50.9241 486.084 52.2921C489.036 53.5881 492.096 54.6321 495.264 55.4241C498.432 56.2161 501.384 56.6121 504.12 56.6121C505.848 56.6121 507.216 56.4681 508.224 56.1801C509.232 55.8921 509.916 55.5321 510.276 55.1001C510.708 54.5961 510.924 54.0201 510.924 53.3721C510.924 52.3641 510.492 51.6081 509.628 51.1041C508.836 50.6001 507.36 50.0961 505.2 49.5921L494.4 47.2161C490.584 46.3521 486.948 45.2001 483.492 43.7601C480.036 42.3201 477.228 40.2321 475.068 37.4961C472.908 34.6881 471.828 30.9081 471.828 26.1561C471.828 21.2601 473.124 16.9761 475.716 13.3041C478.38 9.63214 482.196 6.78813 487.164 4.77213C492.204 2.68414 498.288 1.64014 505.416 1.64014Z"/>
</mask>
<path d="M38.6112 1.64014C45.4512 1.64014 51.5712 2.50414 56.9712 4.23214C62.4432 5.88814 67.2672 8.40814 71.4432 11.7921L61.2912 27.9921C57.9072 25.6161 54.3432 23.7081 50.5992 22.2681C46.9272 20.8281 42.9312 20.1081 38.6112 20.1081C36.7392 20.1081 35.2272 20.2521 34.0752 20.5401C32.9952 20.8281 32.2032 21.2241 31.6992 21.7281C31.2672 22.2321 31.0512 22.8081 31.0512 23.4561C31.0512 24.3201 31.6992 24.9681 32.9952 25.4001C34.3632 25.8321 36.0552 26.3001 38.0712 26.8041L47.8992 29.0721C55.1712 30.7281 60.6432 33.1761 64.3152 36.4161C68.0592 39.6561 69.9312 44.1561 69.9312 49.9161C69.9312 55.6761 68.5272 60.4281 65.7192 64.1721C62.9112 67.8441 59.0952 70.5801 54.2712 72.3801C49.5192 74.1801 44.1192 75.0801 38.0712 75.0801C33.5352 75.0801 28.9992 74.6841 24.4632 73.8921C19.9272 73.0281 15.7152 71.8041 11.8272 70.2201C7.9392 68.5641 4.5912 66.5841 1.7832 64.2801L11.7192 47.7561C13.8072 49.4121 16.3272 50.9241 19.2792 52.2921C22.2312 53.5881 25.2912 54.6321 28.4592 55.4241C31.6272 56.2161 34.5792 56.6121 37.3152 56.6121C39.0432 56.6121 40.4112 56.4681 41.4192 56.1801C42.4272 55.8921 43.1112 55.5321 43.4712 55.1001C43.9032 54.5961 44.1192 54.0201 44.1192 53.3721C44.1192 52.3641 43.6872 51.6081 42.8232 51.1041C42.0312 50.6001 40.5552 50.0961 38.3952 49.5921L27.5952 47.2161C23.7792 46.3521 20.1432 45.2001 16.6872 43.7601C13.2312 42.3201 10.4232 40.2321 8.2632 37.4961C6.1032 34.6881 5.0232 30.9081 5.0232 26.1561C5.0232 21.2601 6.3192 16.9761 8.9112 13.3041C11.5752 9.63214 15.3912 6.78813 20.3592 4.77213C25.3992 2.68414 31.4832 1.64014 38.6112 1.64014Z" stroke="white" stroke-opacity="0.3" stroke-width="2" mask="url(#path-1-outside-1_3078_91626)"/>
<path d="M77.4305 74.0001V2.72014H136.614V21.1881H102.594V30.0441H130.026V47.1081H102.594V55.5321H137.91V74.0001H77.4305Z" stroke="white" stroke-opacity="0.3" stroke-width="2" mask="url(#path-1-outside-1_3078_91626)"/>
<path d="M183.7 2.72014C192.988 2.72014 200.116 4.80814 205.084 8.98413C210.052 13.0881 212.536 18.5601 212.536 25.4001C212.536 33.2481 210.088 39.1521 205.192 43.1121C200.368 47.0721 193.312 49.0521 184.024 49.0521L181.54 50.3481H169.66V74.0001H145.036V2.72014H183.7ZM179.38 33.8241C182.044 33.8241 184.024 33.3561 185.32 32.4201C186.688 31.4121 187.372 29.6841 187.372 27.2361C187.372 24.8601 186.688 23.1681 185.32 22.1601C184.024 21.1521 182.044 20.6481 179.38 20.6481H169.66V33.8241H179.38ZM194.284 39.1161L216.532 74.0001H189.208L172.576 42.7881L194.284 39.1161Z" stroke="white" stroke-opacity="0.3" stroke-width="2" mask="url(#path-1-outside-1_3078_91626)"/>
<path d="M293.004 2.72014L268.92 74.0001H239.004L214.92 2.72014H241.164L250.992 41.7081L254.448 55.6401L257.688 41.9241L267.732 2.72014H293.004Z" stroke="white" stroke-opacity="0.3" stroke-width="2" mask="url(#path-1-outside-1_3078_91626)"/>
<path d="M322.708 2.72014V74.0001H297.544V2.72014H322.708Z" stroke="white" stroke-opacity="0.3" stroke-width="2" mask="url(#path-1-outside-1_3078_91626)"/>
<path d="M400.469 52.1841C399.173 57.7281 396.941 62.1921 393.773 65.5761C390.677 68.9601 386.897 71.4081 382.433 72.9201C377.969 74.3601 373.001 75.0801 367.529 75.0801C360.041 75.0801 353.561 73.6401 348.089 70.7601C342.689 67.8801 338.513 63.7041 335.561 58.2321C332.681 52.7601 331.241 46.1361 331.241 38.3601C331.241 30.5841 332.681 23.9601 335.561 18.4881C338.513 13.0161 342.689 8.84014 348.089 5.96013C353.561 3.08014 360.041 1.64014 367.529 1.64014C372.785 1.64014 377.681 2.39614 382.217 3.90813C386.753 5.34814 390.569 7.65214 393.665 10.8201C396.833 13.9881 398.921 18.1281 399.929 23.2401L378.329 31.6641C377.753 26.9841 376.565 23.9601 374.765 22.5921C373.037 21.2241 370.841 20.5401 368.177 20.5401C365.729 20.5401 363.641 21.1881 361.913 22.4841C360.257 23.7081 358.997 25.6521 358.133 28.3161C357.341 30.9081 356.945 34.2561 356.945 38.3601C356.945 42.3921 357.305 45.7401 358.025 48.4041C358.817 51.0681 360.077 53.0481 361.805 54.3441C363.533 55.5681 365.837 56.1801 368.717 56.1801C371.309 56.1801 373.433 55.4241 375.089 53.9121C376.745 52.3281 377.789 49.8441 378.221 46.4601L400.469 52.1841Z" stroke="white" stroke-opacity="0.3" stroke-width="2" mask="url(#path-1-outside-1_3078_91626)"/>
<path d="M406.598 74.0001V2.72014H465.782V21.1881H431.762V30.0441H459.194V47.1081H431.762V55.5321H467.078V74.0001H406.598Z" stroke="white" stroke-opacity="0.3" stroke-width="2" mask="url(#path-1-outside-1_3078_91626)"/>
<path d="M505.416 1.64014C512.256 1.64014 518.376 2.50414 523.776 4.23214C529.248 5.88814 534.072 8.40814 538.248 11.7921L528.096 27.9921C524.712 25.6161 521.148 23.7081 517.404 22.2681C513.732 20.8281 509.736 20.1081 505.416 20.1081C503.544 20.1081 502.032 20.2521 500.88 20.5401C499.8 20.8281 499.008 21.2241 498.504 21.7281C498.072 22.2321 497.856 22.8081 497.856 23.4561C497.856 24.3201 498.504 24.9681 499.8 25.4001C501.168 25.8321 502.86 26.3001 504.876 26.8041L514.704 29.0721C521.976 30.7281 527.448 33.1761 531.12 36.4161C534.864 39.6561 536.736 44.1561 536.736 49.9161C536.736 55.6761 535.332 60.4281 532.524 64.1721C529.716 67.8441 525.9 70.5801 521.076 72.3801C516.324 74.1801 510.924 75.0801 504.876 75.0801C500.34 75.0801 495.804 74.6841 491.268 73.8921C486.732 73.0281 482.52 71.8041 478.632 70.2201C474.744 68.5641 471.396 66.5841 468.588 64.2801L478.524 47.7561C480.612 49.4121 483.132 50.9241 486.084 52.2921C489.036 53.5881 492.096 54.6321 495.264 55.4241C498.432 56.2161 501.384 56.6121 504.12 56.6121C505.848 56.6121 507.216 56.4681 508.224 56.1801C509.232 55.8921 509.916 55.5321 510.276 55.1001C510.708 54.5961 510.924 54.0201 510.924 53.3721C510.924 52.3641 510.492 51.6081 509.628 51.1041C508.836 50.6001 507.36 50.0961 505.2 49.5921L494.4 47.2161C490.584 46.3521 486.948 45.2001 483.492 43.7601C480.036 42.3201 477.228 40.2321 475.068 37.4961C472.908 34.6881 471.828 30.9081 471.828 26.1561C471.828 21.2601 473.124 16.9761 475.716 13.3041C478.38 9.63214 482.196 6.78813 487.164 4.77213C492.204 2.68414 498.288 1.64014 505.416 1.64014Z" stroke="white" stroke-opacity="0.3" stroke-width="2" mask="url(#path-1-outside-1_3078_91626)"/>
</svg>
