<svg width="845" height="77" viewBox="0 0 845 77" fill="none" xmlns="http://www.w3.org/2000/svg">
<mask id="path-1-outside-1_3092_92384" maskUnits="userSpaceOnUse" x="0" y="0" width="845" height="77" fill="black">
<rect fill="white" width="845" height="77"/>
<path d="M72.06 2.1V20.91H49.4V74.7H23.77V20.91H1V2.1H72.06Z"/>
<path d="M79.7102 74.7V2.1H139.99V20.91H105.34V29.93H133.28V47.31H105.34V55.89H141.31V74.7H79.7102Z"/>
<path d="M180.358 1C187.324 1 193.558 1.88 199.058 3.64C204.631 5.32667 209.544 7.89333 213.798 11.34L203.458 27.84C200.011 25.42 196.381 23.4767 192.568 22.01C188.828 20.5433 184.758 19.81 180.358 19.81C178.451 19.81 176.911 19.9567 175.738 20.25C174.638 20.5433 173.831 20.9467 173.318 21.46C172.878 21.9733 172.658 22.56 172.658 23.22C172.658 24.1 173.318 24.76 174.638 25.2C176.031 25.64 177.754 26.1167 179.808 26.63L189.818 28.94C197.224 30.6267 202.798 33.12 206.538 36.42C210.351 39.72 212.258 44.3033 212.258 50.17C212.258 56.0367 210.828 60.8767 207.968 64.69C205.108 68.43 201.221 71.2167 196.308 73.05C191.468 74.8833 185.968 75.8 179.808 75.8C175.188 75.8 170.568 75.3967 165.948 74.59C161.328 73.71 157.038 72.4633 153.078 70.85C149.118 69.1633 145.708 67.1467 142.848 64.8L152.968 47.97C155.094 49.6567 157.661 51.1967 160.668 52.59C163.674 53.91 166.791 54.9733 170.018 55.78C173.244 56.5867 176.251 56.99 179.038 56.99C180.798 56.99 182.191 56.8433 183.218 56.55C184.244 56.2567 184.941 55.89 185.308 55.45C185.748 54.9367 185.968 54.35 185.968 53.69C185.968 52.6633 185.528 51.8933 184.648 51.38C183.841 50.8667 182.338 50.3533 180.138 49.84L169.138 47.42C165.251 46.54 161.548 45.3667 158.028 43.9C154.508 42.4333 151.648 40.3067 149.448 37.52C147.248 34.66 146.148 30.81 146.148 25.97C146.148 20.9833 147.468 16.62 150.108 12.88C152.821 9.14 156.708 6.24333 161.768 4.19C166.901 2.06333 173.098 1 180.358 1Z"/>
<path d="M287.656 2.1V20.91H264.996V74.7H239.366V20.91H216.596V2.1H287.656Z"/>
<path d="M320.936 2.1V74.7H295.306V2.1H320.936Z"/>
<path d="M425.217 2.1V74.7H402.887V49.51L403.217 25.09H402.887L388.807 74.7H368.347L354.487 25.09H354.047L354.377 49.51V74.7H331.937V2.1H367.797L376.157 34.33L379.347 47.86H379.567L382.757 34.33L391.117 2.1H425.217Z"/>
<path d="M470.893 1C478.593 1 485.193 2.46667 490.693 5.4C496.193 8.33333 500.41 12.5867 503.343 18.16C506.277 23.7333 507.743 30.48 507.743 38.4C507.743 46.32 506.277 53.0667 503.343 58.64C500.41 64.2133 496.193 68.4667 490.693 71.4C485.193 74.3333 478.593 75.8 470.893 75.8C463.267 75.8 456.667 74.3333 451.093 71.4C445.593 68.4667 441.34 64.2133 438.333 58.64C435.4 53.0667 433.933 46.32 433.933 38.4C433.933 30.48 435.4 23.7333 438.333 18.16C441.34 12.5867 445.593 8.33333 451.093 5.4C456.667 2.46667 463.267 1 470.893 1ZM470.893 20.25C468.4 20.25 466.347 20.91 464.733 22.23C463.193 23.4767 462.02 25.42 461.213 28.06C460.48 30.7 460.113 34.1467 460.113 38.4C460.113 42.58 460.48 46.0267 461.213 48.74C462.02 51.38 463.193 53.36 464.733 54.68C466.347 55.9267 468.4 56.55 470.893 56.55C473.387 56.55 475.403 55.9267 476.943 54.68C478.557 53.36 479.73 51.38 480.463 48.74C481.197 46.0267 481.563 42.58 481.563 38.4C481.563 34.1467 481.197 30.7 480.463 28.06C479.73 25.42 478.557 23.4767 476.943 22.23C475.403 20.91 473.387 20.25 470.893 20.25Z"/>
<path d="M587.44 2.1V74.7H559.72L542.34 41.7L538.38 32.79H538.16L538.6 47.75V74.7H516.38V2.1H544.1L561.48 35.21L565.44 44.01H565.66L565.22 29.05V2.1H587.44Z"/>
<path d="M624.08 2.1V74.7H598.45V2.1H624.08Z"/>
<path d="M706.471 74.7H680.291L676.991 60.84H657.411L654.001 74.7H628.481L652.021 2.1H682.821L706.471 74.7ZM661.261 44.89H673.251L667.311 19.7L661.261 44.89Z"/>
<path d="M736.551 55.89H769.441V74.7H710.921V2.1H736.551V55.89Z"/>
<path d="M809.313 1C816.279 1 822.513 1.88 828.013 3.64C833.586 5.32667 838.499 7.89333 842.753 11.34L832.413 27.84C828.966 25.42 825.336 23.4767 821.523 22.01C817.783 20.5433 813.713 19.81 809.313 19.81C807.406 19.81 805.866 19.9567 804.693 20.25C803.593 20.5433 802.786 20.9467 802.273 21.46C801.833 21.9733 801.613 22.56 801.613 23.22C801.613 24.1 802.273 24.76 803.593 25.2C804.986 25.64 806.709 26.1167 808.763 26.63L818.773 28.94C826.179 30.6267 831.753 33.12 835.493 36.42C839.306 39.72 841.213 44.3033 841.213 50.17C841.213 56.0367 839.783 60.8767 836.923 64.69C834.063 68.43 830.176 71.2167 825.263 73.05C820.423 74.8833 814.923 75.8 808.763 75.8C804.143 75.8 799.523 75.3967 794.903 74.59C790.283 73.71 785.993 72.4633 782.033 70.85C778.073 69.1633 774.663 67.1467 771.803 64.8L781.923 47.97C784.049 49.6567 786.616 51.1967 789.623 52.59C792.629 53.91 795.746 54.9733 798.973 55.78C802.199 56.5867 805.206 56.99 807.993 56.99C809.753 56.99 811.146 56.8433 812.173 56.55C813.199 56.2567 813.896 55.89 814.263 55.45C814.703 54.9367 814.923 54.35 814.923 53.69C814.923 52.6633 814.483 51.8933 813.603 51.38C812.796 50.8667 811.293 50.3533 809.093 49.84L798.093 47.42C794.206 46.54 790.503 45.3667 786.983 43.9C783.463 42.4333 780.603 40.3067 778.403 37.52C776.203 34.66 775.103 30.81 775.103 25.97C775.103 20.9833 776.423 16.62 779.063 12.88C781.776 9.14 785.663 6.24333 790.723 4.19C795.856 2.06333 802.053 1 809.313 1Z"/>
</mask>
<path d="M72.06 2.1V20.91H49.4V74.7H23.77V20.91H1V2.1H72.06Z" stroke="white" stroke-opacity="0.3" stroke-width="2" mask="url(#path-1-outside-1_3092_92384)"/>
<path d="M79.7102 74.7V2.1H139.99V20.91H105.34V29.93H133.28V47.31H105.34V55.89H141.31V74.7H79.7102Z" stroke="white" stroke-opacity="0.3" stroke-width="2" mask="url(#path-1-outside-1_3092_92384)"/>
<path d="M180.358 1C187.324 1 193.558 1.88 199.058 3.64C204.631 5.32667 209.544 7.89333 213.798 11.34L203.458 27.84C200.011 25.42 196.381 23.4767 192.568 22.01C188.828 20.5433 184.758 19.81 180.358 19.81C178.451 19.81 176.911 19.9567 175.738 20.25C174.638 20.5433 173.831 20.9467 173.318 21.46C172.878 21.9733 172.658 22.56 172.658 23.22C172.658 24.1 173.318 24.76 174.638 25.2C176.031 25.64 177.754 26.1167 179.808 26.63L189.818 28.94C197.224 30.6267 202.798 33.12 206.538 36.42C210.351 39.72 212.258 44.3033 212.258 50.17C212.258 56.0367 210.828 60.8767 207.968 64.69C205.108 68.43 201.221 71.2167 196.308 73.05C191.468 74.8833 185.968 75.8 179.808 75.8C175.188 75.8 170.568 75.3967 165.948 74.59C161.328 73.71 157.038 72.4633 153.078 70.85C149.118 69.1633 145.708 67.1467 142.848 64.8L152.968 47.97C155.094 49.6567 157.661 51.1967 160.668 52.59C163.674 53.91 166.791 54.9733 170.018 55.78C173.244 56.5867 176.251 56.99 179.038 56.99C180.798 56.99 182.191 56.8433 183.218 56.55C184.244 56.2567 184.941 55.89 185.308 55.45C185.748 54.9367 185.968 54.35 185.968 53.69C185.968 52.6633 185.528 51.8933 184.648 51.38C183.841 50.8667 182.338 50.3533 180.138 49.84L169.138 47.42C165.251 46.54 161.548 45.3667 158.028 43.9C154.508 42.4333 151.648 40.3067 149.448 37.52C147.248 34.66 146.148 30.81 146.148 25.97C146.148 20.9833 147.468 16.62 150.108 12.88C152.821 9.14 156.708 6.24333 161.768 4.19C166.901 2.06333 173.098 1 180.358 1Z" stroke="white" stroke-opacity="0.3" stroke-width="2" mask="url(#path-1-outside-1_3092_92384)"/>
<path d="M287.656 2.1V20.91H264.996V74.7H239.366V20.91H216.596V2.1H287.656Z" stroke="white" stroke-opacity="0.3" stroke-width="2" mask="url(#path-1-outside-1_3092_92384)"/>
<path d="M320.936 2.1V74.7H295.306V2.1H320.936Z" stroke="white" stroke-opacity="0.3" stroke-width="2" mask="url(#path-1-outside-1_3092_92384)"/>
<path d="M425.217 2.1V74.7H402.887V49.51L403.217 25.09H402.887L388.807 74.7H368.347L354.487 25.09H354.047L354.377 49.51V74.7H331.937V2.1H367.797L376.157 34.33L379.347 47.86H379.567L382.757 34.33L391.117 2.1H425.217Z" stroke="white" stroke-opacity="0.3" stroke-width="2" mask="url(#path-1-outside-1_3092_92384)"/>
<path d="M470.893 1C478.593 1 485.193 2.46667 490.693 5.4C496.193 8.33333 500.41 12.5867 503.343 18.16C506.277 23.7333 507.743 30.48 507.743 38.4C507.743 46.32 506.277 53.0667 503.343 58.64C500.41 64.2133 496.193 68.4667 490.693 71.4C485.193 74.3333 478.593 75.8 470.893 75.8C463.267 75.8 456.667 74.3333 451.093 71.4C445.593 68.4667 441.34 64.2133 438.333 58.64C435.4 53.0667 433.933 46.32 433.933 38.4C433.933 30.48 435.4 23.7333 438.333 18.16C441.34 12.5867 445.593 8.33333 451.093 5.4C456.667 2.46667 463.267 1 470.893 1ZM470.893 20.25C468.4 20.25 466.347 20.91 464.733 22.23C463.193 23.4767 462.02 25.42 461.213 28.06C460.48 30.7 460.113 34.1467 460.113 38.4C460.113 42.58 460.48 46.0267 461.213 48.74C462.02 51.38 463.193 53.36 464.733 54.68C466.347 55.9267 468.4 56.55 470.893 56.55C473.387 56.55 475.403 55.9267 476.943 54.68C478.557 53.36 479.73 51.38 480.463 48.74C481.197 46.0267 481.563 42.58 481.563 38.4C481.563 34.1467 481.197 30.7 480.463 28.06C479.73 25.42 478.557 23.4767 476.943 22.23C475.403 20.91 473.387 20.25 470.893 20.25Z" stroke="white" stroke-opacity="0.3" stroke-width="2" mask="url(#path-1-outside-1_3092_92384)"/>
<path d="M587.44 2.1V74.7H559.72L542.34 41.7L538.38 32.79H538.16L538.6 47.75V74.7H516.38V2.1H544.1L561.48 35.21L565.44 44.01H565.66L565.22 29.05V2.1H587.44Z" stroke="white" stroke-opacity="0.3" stroke-width="2" mask="url(#path-1-outside-1_3092_92384)"/>
<path d="M624.08 2.1V74.7H598.45V2.1H624.08Z" stroke="white" stroke-opacity="0.3" stroke-width="2" mask="url(#path-1-outside-1_3092_92384)"/>
<path d="M706.471 74.7H680.291L676.991 60.84H657.411L654.001 74.7H628.481L652.021 2.1H682.821L706.471 74.7ZM661.261 44.89H673.251L667.311 19.7L661.261 44.89Z" stroke="white" stroke-opacity="0.3" stroke-width="2" mask="url(#path-1-outside-1_3092_92384)"/>
<path d="M736.551 55.89H769.441V74.7H710.921V2.1H736.551V55.89Z" stroke="white" stroke-opacity="0.3" stroke-width="2" mask="url(#path-1-outside-1_3092_92384)"/>
<path d="M809.313 1C816.279 1 822.513 1.88 828.013 3.64C833.586 5.32667 838.499 7.89333 842.753 11.34L832.413 27.84C828.966 25.42 825.336 23.4767 821.523 22.01C817.783 20.5433 813.713 19.81 809.313 19.81C807.406 19.81 805.866 19.9567 804.693 20.25C803.593 20.5433 802.786 20.9467 802.273 21.46C801.833 21.9733 801.613 22.56 801.613 23.22C801.613 24.1 802.273 24.76 803.593 25.2C804.986 25.64 806.709 26.1167 808.763 26.63L818.773 28.94C826.179 30.6267 831.753 33.12 835.493 36.42C839.306 39.72 841.213 44.3033 841.213 50.17C841.213 56.0367 839.783 60.8767 836.923 64.69C834.063 68.43 830.176 71.2167 825.263 73.05C820.423 74.8833 814.923 75.8 808.763 75.8C804.143 75.8 799.523 75.3967 794.903 74.59C790.283 73.71 785.993 72.4633 782.033 70.85C778.073 69.1633 774.663 67.1467 771.803 64.8L781.923 47.97C784.049 49.6567 786.616 51.1967 789.623 52.59C792.629 53.91 795.746 54.9733 798.973 55.78C802.199 56.5867 805.206 56.99 807.993 56.99C809.753 56.99 811.146 56.8433 812.173 56.55C813.199 56.2567 813.896 55.89 814.263 55.45C814.703 54.9367 814.923 54.35 814.923 53.69C814.923 52.6633 814.483 51.8933 813.603 51.38C812.796 50.8667 811.293 50.3533 809.093 49.84L798.093 47.42C794.206 46.54 790.503 45.3667 786.983 43.9C783.463 42.4333 780.603 40.3067 778.403 37.52C776.203 34.66 775.103 30.81 775.103 25.97C775.103 20.9833 776.423 16.62 779.063 12.88C781.776 9.14 785.663 6.24333 790.723 4.19C795.856 2.06333 802.053 1 809.313 1Z" stroke="white" stroke-opacity="0.3" stroke-width="2" mask="url(#path-1-outside-1_3092_92384)"/>
</svg>
